#!OML:ASF H:\Terrain\Patient Classification 1\Walking\liu\liu.ASF
:FULLY-SPECIFIED
:DEGREES
198
root 8.15867 16.6093 -9.73064 6.86408 3.59186 -3.46454
lowerback -4.39301 1.60235 1.2054
upperback -0.882704 2.02413 3.53214
thorax 1.46848 1.01434 3.07038
lowerneck -15.9208 -6.87706 -14.6147
upperneck 14.2903 -8.72298 15.0606
head 8.40442 -3.6123 6.4416
rclavicle -2.76311e-014 -2.3059e-014
rhumerus -35.3124 9.57489 -78.9962
rradius 50.3681
rwrist -27.02
rhand -35.6713 -31.2531
rfingers 7.12502
rthumb -8.79258 -61.0499
lclavicle -2.76311e-014 -2.3059e-014
lhumerus -48.5575 -9.81577 95.905
lradius 29.5629
lwrist 11.8728
lhand -13.1519 -24.2344
lfingers 7.12502
lthumb 12.9468 5.34399
rfemur -6.32155 5.38983 29.7778
rtibia 21.1678
rfoot -20.1145 2.2688
rtoes -7.49158
lfemur -40.2584 4.67588 -18.9699
ltibia 37.4033
lfoot -14.597 8.73466
ltoes -11.8301
199
root 8.16636 16.6155 -9.59183 6.87273 3.39009 -3.3932
lowerback -4.78468 1.43934 1.05755
upperback -0.175062 1.77814 3.36623
thorax 2.42786 0.883143 2.99606
lowerneck -18.2814 -6.84652 -13.5971
upperneck 14.8394 -8.63365 14.7427
head 8.93402 -3.43915 6.15299
rclavicle -1.19271e-014 2.06736e-014
rhumerus -33.5527 9.42566 -79.2296
rradius 49.904
rwrist -25.6261
rhand -33.8481 -30.0312
rfingers 7.12502
rthumb -7.03297 -59.8943
lclavicle -1.19271e-014 2.06736e-014
lhumerus -47.1904 -9.43243 95.021
lradius 29.1628
lwrist 11.4164
lhand -12.6424 -23.9726
lfingers 7.12502
lthumb 13.4379 5.57398
rfemur -5.2134 5.46315 29.6884
rtibia 20.1847
rfoot -20.0315 2.69992
rtoes -6.17031
lfemur -40.4661 4.39844 -18.9672
ltibia 35.5243
lfoot -14.7702 8.60254
ltoes -13.1875
200
root 8.17578 16.6199 -9.45699 6.91985 3.18037 -3.62855
lowerback -4.85675 1.67969 1.43859
upperback -0.544491 2.08836 3.39381
thorax 2.08671 1.04426 2.8246
lowerneck -16.922 -6.90318 -14.4042
upperneck 14.6601 -8.74257 15.1712
head 8.70768 -3.55547 6.44026
rclavicle -1.99282e-014 -1.90833e-014
rhumerus -34.6594 9.26569 -79.2187
rradius 50.4027
rwrist -25.6888
rhand -33.8666 -30.4691
rfingers 7.12502
rthumb -7.05079 -60.3317
lclavicle -1.99282e-014 -1.90833e-014
lhumerus -48.1664 -10.2164 95.8314
lradius 28.8823
lwrist 11.747
lhand -12.6953 -23.9
lfingers 7.12502
lthumb 13.3869 5.6499
rfemur -4.32782 5.42551 29.9416
rtibia 19.1835
rfoot -19.7882 2.87158
rtoes -6.73875
lfemur -40.7405 4.11521 -18.5819
ltibia 33.5983
lfoot -14.8386 8.56326
ltoes -14.0752
201
root 8.18949 16.6134 -9.31457 6.90281 2.9807 -3.68242
lowerback -4.9606 1.73771 1.5089
upperback -0.714513 2.16411 3.41018
thorax 1.96883 1.08339 2.80662
lowerneck -16.0683 -6.85759 -14.6178
upperneck 14.4217 -8.70444 15.1325
head 8.47558 -3.5907 6.4724
rclavicle 1.21259e-014 1.27222e-014
rhumerus -35.284 9.4882 -79.4409
rradius 50.8484
rwrist -25.9139
rhand -34.0152 -30.6656
rfingers 7.12502
rthumb -7.19424 -60.5234
lclavicle 1.21259e-014 1.27222e-014
lhumerus -48.8913 -10.5721 96.3865
lradius 28.7206
lwrist 11.8948
lhand -12.994 -24.0849
lfingers 7.12502
lthumb 13.099 5.48368
rfemur -3.26193 5.12918 29.9697
rtibia 18.041
rfoot -19.3988 3.1816
rtoes -8.26972
lfemur -40.8616 3.49958 -18.2269
ltibia 31.8025
lfoot -14.8176 8.61236
ltoes -13.6727
202
root 8.20371 16.6036 -9.17298 6.95446 2.87018 -3.70846
lowerback -5.05729 1.69047 1.46947
upperback -0.819941 2.10305 3.43734
thorax 1.91415 1.05304 2.85391
lowerneck -15.6218 -6.7387 -14.4587
upperneck 14.1608 -8.55303 14.8569
head 8.26186 -3.55463 6.3671
rclavicle 3.8117e-014 4.85035e-014
rhumerus -35.3979 9.83128 -79.8053
rradius 51.0853
rwrist -26.0982
rhand -33.7378 -30.8806
rfingers 7.12502
rthumb -6.92646 -60.7473
lclavicle 3.8117e-014 4.85035e-014
lhumerus -49.2861 -10.1296 96.2552
lradius 28.5821
lwrist 10.9918
lhand -12.9023 -24.2904
lfingers 7.12502
lthumb 13.1874 5.27249
rfemur -2.1296 5.09169 29.9867
rtibia 16.7871
rfoot -19.06 3.29898
rtoes -8.17952
lfemur -41.0914 2.7038 -17.8175
ltibia 30.1811
lfoot -14.9797 9.11226
ltoes -13.7686
203
root 8.21578 16.5873 -9.0378 7.02993 2.75541 -4.0027
lowerback -5.13904 1.59898 1.70019
upperback -0.864889 1.96577 3.48632
thorax 1.92487 0.985745 2.76798
lowerneck -15.9131 -6.55617 -14.1854
upperneck 14.4695 -8.3504 14.8118
head 8.3687 -3.43375 6.33781
rclavicle 7.45443e-016 -3.02153e-014
rhumerus -35.3283 10.4443 -80.3202
rradius 51.2464
rwrist -26.3911
rhand -33.5022 -30.5984
rfingers 7.12502
rthumb -6.69902 -60.4725
lclavicle 7.45443e-016 -3.02153e-014
lhumerus -49.3388 -9.77163 95.955
lradius 28.2115
lwrist 10.5558
lhand -12.2968 -24.2522
lfingers 7.12502
lthumb 13.7709 5.27209
rfemur -1.08426 5.32496 30.3281
rtibia 15.6247
rfoot -18.9807 3.34213
rtoes -8.18841
lfemur -41.4595 2.15103 -17.1646
ltibia 28.6507
lfoot -15.1808 9.87223
ltoes -15.9468
204
root 8.22297 16.5711 -8.89496 7.03749 2.4892 -4.30306
lowerback -5.26678 1.59878 1.95313
upperback -0.851976 1.94496 3.49732
thorax 2.01838 0.9766 2.64081
lowerneck -16.2299 -6.44278 -14.1015
upperneck 14.8505 -8.24849 14.9852
head 8.54106 -3.35005 6.40768
rclavicle 3.60297e-015 -2.38542e-014
rhumerus -35.5006 10.9962 -80.7949
rradius 51.4936
rwrist -26.7098
rhand -33.495 -30.2674
rfingers 7.12502
rthumb -6.69207 -60.1416
lclavicle 3.60297e-015 -2.38542e-014
lhumerus -49.5801 -10.0112 96.0526
lradius 27.9589
lwrist 10.5622
lhand -12.4644 -24.3029
lfingers 7.12502
lthumb 13.6094 5.23223
rfemur 0.0872002 5.37709 30.6344
rtibia 14.4356
rfoot -18.8454 3.69173
rtoes -8.15852
lfemur -41.6607 1.82443 -16.5342
ltibia 27.1477
lfoot -15.0061 10.2614
ltoes -16.3012
205
root 8.23574 16.5626 -8.74914 7.14863 2.06448 -4.3445
lowerback -5.60536 1.81341 2.03851
upperback -0.771081 2.20889 3.44638
thorax 2.28816 1.10868 2.57363
lowerneck -16.2925 -6.55015 -14.3419
upperneck 14.8609 -8.36179 15.1317
head 8.59271 -3.4017 6.4851
rclavicle -1.47349e-014 -8.74653e-015
rhumerus -35.7458 11.0835 -80.9277
rradius 51.9499
rwrist -26.9523
rhand -33.4707 -30.1688
rfingers 7.12502
rthumb -6.66864 -60.0438
lclavicle -1.47349e-014 -8.74653e-015
lhumerus -49.6985 -10.0493 96.0312
lradius 27.8532
lwrist 9.63369
lhand -12.734 -24.2986
lfingers 7.12502
lthumb 13.3496 5.25371
rfemur 1.19704 5.05245 30.5529
rtibia 13.1824
rfoot -18.4767 4.31308
rtoes -7.60812
lfemur -41.9059 1.63373 -16.2302
ltibia 25.7344
lfoot -14.7725 10.4926
ltoes -15.3063
206
root 8.25429 16.5661 -8.60496 7.39442 1.69259 -4.42843
lowerback -6.10719 2.02051 2.1959
upperback -0.679507 2.44875 3.42609
thorax 2.66388 1.22934 2.50663
lowerneck -16.4185 -6.67551 -14.4741
upperneck 14.8112 -8.46627 15.0548
head 8.61805 -3.46058 6.46138
rclavicle 2.61402e-014 3.18055e-015
rhumerus -35.7123 11.0914 -81.0107
rradius 52.2757
rwrist -27.0603
rhand -33.1956 -29.0492
rfingers 7.12502
rthumb -6.403 -58.9325
lclavicle 2.61402e-014 3.18055e-015
lhumerus -49.5323 -10.1832 96.0635
lradius 27.5926
lwrist 9.17158
lhand -12.1454 -23.9754
lfingers 7.12502
lthumb 13.9169 5.5389
rfemur 2.22393 4.83492 30.5135
rtibia 11.8137
rfoot -17.9414 4.59121
rtoes -9.2567
lfemur -42.3047 1.13996 -15.736
ltibia 24.3845
lfoot -14.9314 11.4703
ltoes -16.9798
207
root 8.27301 16.5587 -8.45599 7.52246 1.40414 -4.724
lowerback -6.42647 2.10749 2.54202
upperback -0.687496 2.52465 3.44787
thorax 2.84627 1.27049 2.35599
lowerneck -16.2023 -6.62432 -14.4277
upperneck 14.6955 -8.41381 15.014
head 8.52752 -3.44658 6.44564
rclavicle 5.46658e-015 2.38542e-014
rhumerus -35.7873 11.2368 -81.3327
rradius 52.3173
rwrist -27.0237
rhand -32.937 -28.0117
rfingers 7.12502
rthumb -6.15337 -57.9023
lclavicle 5.46658e-015 2.38542e-014
lhumerus -49.6886 -10.4402 96.1898
lradius 27.4384
lwrist 9.41636
lhand -11.8854 -23.9833
lfingers 7.12502
lthumb 14.1674 5.51357
rfemur 3.44267 4.82545 30.6952
rtibia 10.2889
rfoot -17.2718 4.95633
rtoes -9.01078
lfemur -42.5925 0.381256 -14.8403
ltibia 23.2035
lfoot -15.1048 12.5144
ltoes -19.1011
208
root 8.29138 16.5492 -8.31051 7.5086 1.11413 -5.0826
lowerback -6.47979 2.13605 2.87611
upperback -0.710157 2.53373 3.54764
thorax 2.86256 1.27807 2.27529
lowerneck -15.8219 -6.52047 -14.6034
upperneck 14.4658 -8.30083 15.265
head 8.38495 -3.39872 6.58136
rclavicle -2.11209e-014 2.54444e-014
rhumerus -36.103 11.6329 -81.6581
rradius 52.5256
rwrist -27.0644
rhand -33.0414 -29.0811
rfingers 7.12502
rthumb -6.25422 -58.9688
lclavicle -2.11209e-014 2.54444e-014
lhumerus -49.8928 -9.34405 95.5451
lradius 27.3821
lwrist 8.38242
lhand -11.6224 -24.2709
lfingers 7.12502
lthumb 14.4209 5.20809
rfemur 4.9881 4.95389 30.942
rtibia 8.34301
rfoot -16.3437 5.28028
rtoes -7.42085
lfemur -42.7599 -0.150695 -13.9099
ltibia 22.2685
lfoot -15.2389 12.726
ltoes -18.2799
209
root 8.30522 16.5384 -8.16707 7.58228 0.775695 -5.44353
lowerback -6.58545 2.19712 3.11303
upperback -0.754581 2.58964 3.69122
thorax 2.87868 1.3077 2.30039
lowerneck -15.6573 -6.47397 -14.7161
upperneck 14.4336 -8.23385 15.299
head 8.34005 -3.37773 6.62365
rclavicle 2.98922e-014 1.66979e-014
rhumerus -36.4344 11.9358 -81.9082
rradius 52.8654
rwrist -27.1252
rhand -33.0495 -30.1391
rfingers 7.12502
rthumb -6.26198 -60.0265
lclavicle 2.98922e-014 1.66979e-014
lhumerus -50.2544 -10.3468 96.5952
lradius 27.1074
lwrist 9.96463
lhand -11.3006 -23.944
lfingers 7.12502
lthumb 14.7309 5.51264
rfemur 6.73931 5.14267 31.2556
rtibia 5.82718
rfoot -15.1533 5.31594
rtoes -8.98937
lfemur -43.0457 -0.834167 -12.7693
ltibia 21.5859
lfoot -15.7651 13.2232
ltoes -15.2948
210
root 8.31661 16.5231 -8.01919 7.79689 0.402381 -5.70243
lowerback -6.87345 2.31833 3.24517
upperback -0.83096 2.72565 3.76234
thorax 2.96117 1.37643 2.32426
lowerneck -15.8194 -6.48397 -14.5718
upperneck 14.7005 -8.24121 15.0507
head 8.43965 -3.38636 6.5133
rclavicle 4.52235e-015 3.89618e-014
rhumerus -36.6869 11.9963 -82.1707
rradius 53.0392
rwrist -27.1358
rhand -32.7749 -29.4794
rfingers 7.12502
rthumb -5.99688 -59.3746
lclavicle 4.52235e-015 3.89618e-014
lhumerus -50.5433 -11.1733 97.2971
lradius 26.8345
lwrist 10.7542
lhand -11.8053 -24.4007
lfingers 7.12502
lthumb 14.2447 5.0908
rfemur 9.95006 5.3795 31.4484
rtibia -1.27222e-014
rfoot -12.2684 5.16866
rtoes -9.14631
lfemur -43.4593 -1.97618 -11.4478
ltibia 21.0625
lfoot -16.4731 14.4706
ltoes -14.0105
